<mxfile modified="2022-10-24T20:56:55.904Z" host="app.diagrams.net" agent="5.0 (Windows NT 10.0; Win64; x64) AppleWebKit/537.36 (KHTML, like Gecko) Chrome/106.0.0.0 Safari/537.36" etag="AzcOo0R-Xdk5Jv21k9XM" version="20.4.1" type="github">
  <diagram id="Ht1M8jgEwFfnCIfOTk4-" name="Page-1">
    <mxGraphModel dx="942" dy="1409" grid="0" gridSize="10" guides="1" tooltips="1" connect="1" arrows="1" fold="1" page="1" pageScale="1" pageWidth="1169" pageHeight="827" background="#ffffff" math="0" shadow="0">
      <root>
        <mxCell id="0" />
        <mxCell id="1" parent="0" />
        <mxCell id="QOjSqn35CtUO5GJdzT69-24" value="" style="edgeStyle=orthogonalEdgeStyle;html=1;endArrow=block;elbow=vertical;startArrow=block;startFill=1;endFill=1;strokeColor=#545B64;rounded=0;strokeWidth=1;fontSize=11;endSize=6;opacity=60;shape=link;entryX=0;entryY=0.5;entryDx=0;entryDy=0;entryPerimeter=0;" parent="1" source="QOjSqn35CtUO5GJdzT69-4" edge="1">
          <mxGeometry width="100" relative="1" as="geometry">
            <mxPoint x="206" y="-715" as="sourcePoint" />
            <mxPoint x="360" y="-716.0000000000001" as="targetPoint" />
            <Array as="points">
              <mxPoint x="244" y="-716" />
              <mxPoint x="244" y="-716" />
            </Array>
          </mxGeometry>
        </mxCell>
        <mxCell id="QOjSqn35CtUO5GJdzT69-23" value="" style="edgeStyle=orthogonalEdgeStyle;html=1;endArrow=block;elbow=vertical;startArrow=block;startFill=1;endFill=1;strokeColor=#545B64;rounded=0;strokeWidth=1;fontSize=11;endSize=6;opacity=60;shape=link;entryX=0.5;entryY=0;entryDx=0;entryDy=0;exitX=0.5;exitY=0;exitDx=0;exitDy=0;" parent="1" source="QOjSqn35CtUO5GJdzT69-2" target="QOjSqn35CtUO5GJdzT69-7" edge="1">
          <mxGeometry width="100" relative="1" as="geometry">
            <mxPoint x="210" y="-520" as="sourcePoint" />
            <mxPoint x="400" y="-640" as="targetPoint" />
            <Array as="points">
              <mxPoint x="151" y="-500" />
              <mxPoint x="160" y="-500" />
              <mxPoint x="160" y="-640" />
              <mxPoint x="369" y="-640" />
            </Array>
          </mxGeometry>
        </mxCell>
        <mxCell id="UEzPUAAOIrF-is8g5C7q-175" value="AWS Cloud" style="points=[[0,0],[0.25,0],[0.5,0],[0.75,0],[1,0],[1,0.25],[1,0.5],[1,0.75],[1,1],[0.75,1],[0.5,1],[0.25,1],[0,1],[0,0.75],[0,0.5],[0,0.25]];outlineConnect=0;gradientColor=none;html=1;whiteSpace=wrap;fontSize=12;fontStyle=0;shape=mxgraph.aws4.group;grIcon=mxgraph.aws4.group_aws_cloud_alt;strokeColor=#232F3E;fillColor=none;verticalAlign=top;align=left;spacingLeft=30;fontColor=#232F3E;dashed=0;labelBackgroundColor=#ffffff;container=1;pointerEvents=0;collapsible=0;recursiveResize=0;" parent="1" vertex="1">
          <mxGeometry x="223" y="-792.5" width="667" height="449.5" as="geometry" />
        </mxCell>
        <mxCell id="QOjSqn35CtUO5GJdzT69-45" value="" style="edgeStyle=orthogonalEdgeStyle;html=1;endArrow=block;elbow=vertical;startArrow=none;endFill=1;strokeColor=#545B64;rounded=0;strokeWidth=1;fontSize=11;endSize=6;opacity=60;entryX=0.5;entryY=0;entryDx=0;entryDy=0;entryPerimeter=0;exitX=0.5;exitY=0;exitDx=0;exitDy=0;" parent="UEzPUAAOIrF-is8g5C7q-175" source="QOjSqn35CtUO5GJdzT69-20" target="QOjSqn35CtUO5GJdzT69-41" edge="1">
          <mxGeometry width="100" relative="1" as="geometry">
            <mxPoint x="241" y="222.5" as="sourcePoint" />
            <mxPoint x="341" y="222.5" as="targetPoint" />
            <Array as="points">
              <mxPoint x="280" y="263" />
              <mxPoint x="280" y="263" />
            </Array>
          </mxGeometry>
        </mxCell>
        <mxCell id="QOjSqn35CtUO5GJdzT69-26" value="" style="group" parent="UEzPUAAOIrF-is8g5C7q-175" vertex="1" connectable="0">
          <mxGeometry x="241" y="171.5" width="78" height="96.25" as="geometry" />
        </mxCell>
        <mxCell id="QOjSqn35CtUO5GJdzT69-19" value="" style="sketch=0;points=[[0,0,0],[0.25,0,0],[0.5,0,0],[0.75,0,0],[1,0,0],[0,1,0],[0.25,1,0],[0.5,1,0],[0.75,1,0],[1,1,0],[0,0.25,0],[0,0.5,0],[0,0.75,0],[1,0.25,0],[1,0.5,0],[1,0.75,0]];outlineConnect=0;fontColor=#232F3E;gradientColor=#945DF2;gradientDirection=north;fillColor=#5A30B5;strokeColor=#ffffff;dashed=0;verticalLabelPosition=bottom;verticalAlign=top;align=center;html=1;fontSize=12;fontStyle=0;aspect=fixed;shape=mxgraph.aws4.resourceIcon;resIcon=mxgraph.aws4.cloudfront;" parent="QOjSqn35CtUO5GJdzT69-26" vertex="1">
          <mxGeometry width="78" height="78" as="geometry" />
        </mxCell>
        <mxCell id="QOjSqn35CtUO5GJdzT69-20" value="&lt;div style=&quot;text-align: center;&quot;&gt;&lt;span style=&quot;background-color: rgb(255, 255, 255); color: rgb(35, 47, 62);&quot;&gt;Amazon CloudFront&lt;/span&gt;&lt;/div&gt;" style="text;whiteSpace=wrap;html=1;" parent="QOjSqn35CtUO5GJdzT69-26" vertex="1">
          <mxGeometry x="4.5" y="73.75" width="69" height="22.5" as="geometry" />
        </mxCell>
        <mxCell id="QOjSqn35CtUO5GJdzT69-28" value="" style="group" parent="UEzPUAAOIrF-is8g5C7q-175" vertex="1" connectable="0">
          <mxGeometry x="111" y="33.5" width="78" height="100.5" as="geometry" />
        </mxCell>
        <mxCell id="QOjSqn35CtUO5GJdzT69-35" value="" style="group" parent="QOjSqn35CtUO5GJdzT69-28" vertex="1" connectable="0">
          <mxGeometry width="78" height="94.5" as="geometry" />
        </mxCell>
        <mxCell id="QOjSqn35CtUO5GJdzT69-5" value="" style="sketch=0;points=[[0,0,0],[0.25,0,0],[0.5,0,0],[0.75,0,0],[1,0,0],[0,1,0],[0.25,1,0],[0.5,1,0],[0.75,1,0],[1,1,0],[0,0.25,0],[0,0.5,0],[0,0.75,0],[1,0.25,0],[1,0.5,0],[1,0.75,0]];outlineConnect=0;fontColor=#232F3E;gradientColor=#945DF2;gradientDirection=north;fillColor=#5A30B5;strokeColor=#ffffff;dashed=0;verticalLabelPosition=bottom;verticalAlign=top;align=center;html=1;fontSize=12;fontStyle=0;aspect=fixed;shape=mxgraph.aws4.resourceIcon;resIcon=mxgraph.aws4.route_53;" parent="QOjSqn35CtUO5GJdzT69-35" vertex="1">
          <mxGeometry width="78" height="78" as="geometry" />
        </mxCell>
        <mxCell id="QOjSqn35CtUO5GJdzT69-7" value="&lt;div style=&quot;text-align: center;&quot;&gt;&lt;span style=&quot;background-color: rgb(255, 255, 255); color: rgb(35, 47, 62);&quot;&gt;Amazon Route53&lt;/span&gt;&lt;/div&gt;" style="text;whiteSpace=wrap;html=1;" parent="QOjSqn35CtUO5GJdzT69-35" vertex="1">
          <mxGeometry x="4.5" y="72" width="69" height="22.5" as="geometry" />
        </mxCell>
        <mxCell id="QOjSqn35CtUO5GJdzT69-10" style="edgeStyle=orthogonalEdgeStyle;rounded=0;orthogonalLoop=1;jettySize=auto;html=1;exitX=0.5;exitY=1;exitDx=0;exitDy=0;" parent="QOjSqn35CtUO5GJdzT69-35" source="QOjSqn35CtUO5GJdzT69-7" target="QOjSqn35CtUO5GJdzT69-7" edge="1">
          <mxGeometry relative="1" as="geometry" />
        </mxCell>
        <mxCell id="QOjSqn35CtUO5GJdzT69-40" value="" style="edgeStyle=orthogonalEdgeStyle;html=1;endArrow=block;elbow=vertical;startArrow=none;endFill=1;strokeColor=#545B64;rounded=0;strokeWidth=1;fontSize=11;endSize=6;opacity=60;exitX=1;exitY=0.5;exitDx=0;exitDy=0;exitPerimeter=0;" parent="UEzPUAAOIrF-is8g5C7q-175" edge="1">
          <mxGeometry width="100" relative="1" as="geometry">
            <mxPoint x="319" y="210.5" as="sourcePoint" />
            <mxPoint x="421" y="211.97826086956525" as="targetPoint" />
            <Array as="points">
              <mxPoint x="319" y="212" />
            </Array>
          </mxGeometry>
        </mxCell>
        <mxCell id="QOjSqn35CtUO5GJdzT69-41" value="" style="sketch=0;points=[[0,0,0],[0.25,0,0],[0.5,0,0],[0.75,0,0],[1,0,0],[0,1,0],[0.25,1,0],[0.5,1,0],[0.75,1,0],[1,1,0],[0,0.25,0],[0,0.5,0],[0,0.75,0],[1,0.25,0],[1,0.5,0],[1,0.75,0]];outlineConnect=0;fontColor=#232F3E;gradientColor=#F54749;gradientDirection=north;fillColor=#C7131F;strokeColor=#ffffff;dashed=0;verticalLabelPosition=bottom;verticalAlign=top;align=center;html=1;fontSize=12;fontStyle=0;aspect=fixed;shape=mxgraph.aws4.resourceIcon;resIcon=mxgraph.aws4.certificate_manager_3;" parent="UEzPUAAOIrF-is8g5C7q-175" vertex="1">
          <mxGeometry x="241" y="333.5" width="78" height="78" as="geometry" />
        </mxCell>
        <mxCell id="QOjSqn35CtUO5GJdzT69-42" value="&lt;div style=&quot;text-align: center;&quot;&gt;&lt;span style=&quot;background-color: rgb(255, 255, 255); color: rgb(35, 47, 62);&quot;&gt;AWS Certificate Manager&lt;/span&gt;&lt;/div&gt;" style="text;whiteSpace=wrap;html=1;" parent="UEzPUAAOIrF-is8g5C7q-175" vertex="1">
          <mxGeometry x="228.25" y="407.5" width="103.5" height="26.75" as="geometry" />
        </mxCell>
        <mxCell id="QOjSqn35CtUO5GJdzT69-47" value="" style="shape=image;html=1;verticalAlign=top;verticalLabelPosition=bottom;labelBackgroundColor=#ffffff;imageAspect=0;aspect=fixed;image=https://cdn1.iconfinder.com/data/icons/office-icons-17/512/ilustracoes_04-14-128.png;fontSize=11;" parent="UEzPUAAOIrF-is8g5C7q-175" vertex="1">
          <mxGeometry x="539.75" y="293.5" width="106.5" height="106.5" as="geometry" />
        </mxCell>
        <mxCell id="QOjSqn35CtUO5GJdzT69-48" value="" style="shape=image;html=1;verticalAlign=top;verticalLabelPosition=bottom;labelBackgroundColor=#ffffff;imageAspect=0;aspect=fixed;image=https://cdn4.iconfinder.com/data/icons/48-bubbles/48/20.Photos-128.png;fontSize=11;" parent="UEzPUAAOIrF-is8g5C7q-175" vertex="1">
          <mxGeometry x="555.38" y="33.5" width="88.25" height="88.25" as="geometry" />
        </mxCell>
        <mxCell id="QOjSqn35CtUO5GJdzT69-49" value="" style="edgeStyle=orthogonalEdgeStyle;html=1;endArrow=block;elbow=vertical;startArrow=none;endFill=1;strokeColor=#545B64;rounded=0;strokeWidth=1;fontSize=11;endSize=6;opacity=60;" parent="UEzPUAAOIrF-is8g5C7q-175" edge="1">
          <mxGeometry width="100" relative="1" as="geometry">
            <mxPoint x="491.9999999999998" y="212.97368421052636" as="sourcePoint" />
            <mxPoint x="593.9473684210527" y="288.5" as="targetPoint" />
            <Array as="points">
              <mxPoint x="594" y="213" />
            </Array>
          </mxGeometry>
        </mxCell>
        <mxCell id="QOjSqn35CtUO5GJdzT69-51" value="" style="edgeStyle=orthogonalEdgeStyle;html=1;endArrow=block;elbow=vertical;startArrow=none;endFill=1;strokeColor=#545B64;rounded=0;strokeWidth=1;fontSize=11;endSize=6;opacity=60;" parent="UEzPUAAOIrF-is8g5C7q-175" edge="1">
          <mxGeometry width="100" relative="1" as="geometry">
            <mxPoint x="491.9999999999998" y="211.5" as="sourcePoint" />
            <mxPoint x="593.9473684210527" y="142.75" as="targetPoint" />
            <Array as="points">
              <mxPoint x="594" y="212" />
            </Array>
          </mxGeometry>
        </mxCell>
        <mxCell id="QOjSqn35CtUO5GJdzT69-43" value="" style="group" parent="UEzPUAAOIrF-is8g5C7q-175" vertex="1" connectable="0">
          <mxGeometry x="421" y="172.5" width="78" height="101.25" as="geometry" />
        </mxCell>
        <mxCell id="QOjSqn35CtUO5GJdzT69-27" value="&lt;div style=&quot;text-align: center;&quot;&gt;&lt;span style=&quot;color: rgb(35, 47, 62); background-color: rgb(255, 255, 255);&quot;&gt;Amazon S3&lt;/span&gt;&lt;br&gt;&lt;/div&gt;" style="text;whiteSpace=wrap;html=1;" parent="QOjSqn35CtUO5GJdzT69-43" vertex="1">
          <mxGeometry x="4.5" y="74.5" width="69" height="26.75" as="geometry" />
        </mxCell>
        <mxCell id="QOjSqn35CtUO5GJdzT69-33" value="" style="sketch=0;points=[[0,0,0],[0.25,0,0],[0.5,0,0],[0.75,0,0],[1,0,0],[0,1,0],[0.25,1,0],[0.5,1,0],[0.75,1,0],[1,1,0],[0,0.25,0],[0,0.5,0],[0,0.75,0],[1,0.25,0],[1,0.5,0],[1,0.75,0]];outlineConnect=0;fontColor=#232F3E;gradientColor=#60A337;gradientDirection=north;fillColor=#277116;strokeColor=#ffffff;dashed=0;verticalLabelPosition=bottom;verticalAlign=top;align=center;html=1;fontSize=12;fontStyle=0;aspect=fixed;shape=mxgraph.aws4.resourceIcon;resIcon=mxgraph.aws4.s3;" parent="QOjSqn35CtUO5GJdzT69-43" vertex="1">
          <mxGeometry width="78" height="78" as="geometry" />
        </mxCell>
        <mxCell id="QOjSqn35CtUO5GJdzT69-53" value="&lt;div style=&quot;text-align: center;&quot;&gt;&lt;font color=&quot;#232f3e&quot;&gt;&lt;span style=&quot;background-color: rgb(255, 255, 255);&quot;&gt;HTML - CSS&lt;/span&gt;&lt;/font&gt;&lt;/div&gt;" style="text;whiteSpace=wrap;html=1;" parent="UEzPUAAOIrF-is8g5C7q-175" vertex="1">
          <mxGeometry x="560" y="391.5" width="79" height="26.75" as="geometry" />
        </mxCell>
        <mxCell id="QOjSqn35CtUO5GJdzT69-52" value="&lt;div style=&quot;text-align: center;&quot;&gt;&lt;span style=&quot;color: rgb(35, 47, 62); background-color: rgb(255, 255, 255);&quot;&gt;IMAGENS&lt;/span&gt;&lt;br&gt;&lt;/div&gt;" style="text;whiteSpace=wrap;html=1;" parent="UEzPUAAOIrF-is8g5C7q-175" vertex="1">
          <mxGeometry x="558.5" y="112" width="69" height="26.75" as="geometry" />
        </mxCell>
        <mxCell id="QOjSqn35CtUO5GJdzT69-4" value="" style="aspect=fixed;html=1;points=[];align=center;image;fontSize=12;image=img/lib/azure2/networking/DNS_Zones.svg;" parent="1" vertex="1">
          <mxGeometry x="145.99999999999997" y="-749" width="64" height="64" as="geometry" />
        </mxCell>
        <mxCell id="QOjSqn35CtUO5GJdzT69-25" value="" style="edgeStyle=orthogonalEdgeStyle;html=1;endArrow=block;elbow=vertical;startArrow=block;startFill=1;endFill=1;strokeColor=#545B64;rounded=0;strokeWidth=1;fontSize=11;endSize=6;opacity=60;shape=link;" parent="1" source="QOjSqn35CtUO5GJdzT69-1" target="QOjSqn35CtUO5GJdzT69-19" edge="1">
          <mxGeometry width="100" relative="1" as="geometry">
            <mxPoint x="430" y="-690" as="sourcePoint" />
            <mxPoint x="530" y="-690" as="targetPoint" />
          </mxGeometry>
        </mxCell>
        <mxCell id="QOjSqn35CtUO5GJdzT69-31" value="" style="group" parent="1" vertex="1" connectable="0">
          <mxGeometry x="120" y="-550" width="66.41" height="106" as="geometry" />
        </mxCell>
        <mxCell id="QOjSqn35CtUO5GJdzT69-32" value="" style="group" parent="QOjSqn35CtUO5GJdzT69-31" vertex="1" connectable="0">
          <mxGeometry width="66.41" height="104" as="geometry" />
        </mxCell>
        <mxCell id="QOjSqn35CtUO5GJdzT69-1" value="" style="points=[];aspect=fixed;html=1;align=center;shadow=0;dashed=0;image;image=img/lib/allied_telesis/computer_and_terminals/Personal_Computer.svg;" parent="QOjSqn35CtUO5GJdzT69-32" vertex="1">
          <mxGeometry width="66.41" height="90" as="geometry" />
        </mxCell>
        <mxCell id="QOjSqn35CtUO5GJdzT69-2" value="&lt;span style=&quot;color: rgb(35, 47, 62); font-family: Helvetica; font-size: 12px; font-style: normal; font-variant-ligatures: normal; font-variant-caps: normal; font-weight: 400; letter-spacing: normal; orphans: 2; text-align: left; text-indent: 0px; text-transform: none; widows: 2; word-spacing: 0px; -webkit-text-stroke-width: 0px; background-color: rgb(255, 255, 255); text-decoration-thickness: initial; text-decoration-style: initial; text-decoration-color: initial; float: none; display: inline !important;&quot;&gt;Client&lt;/span&gt;" style="text;whiteSpace=wrap;html=1;" parent="QOjSqn35CtUO5GJdzT69-32" vertex="1">
          <mxGeometry x="11.199999999999989" y="84" width="40" height="20" as="geometry" />
        </mxCell>
      </root>
    </mxGraphModel>
  </diagram>
</mxfile>
